<?xml version="1.0" encoding="iso-8859-1"?>
<!-- Generator: Adobe Illustrator 19.0.0, SVG Export Plug-In . SVG Version: 6.00 Build 0)  -->
<svg xmlns="http://www.w3.org/2000/svg" xmlns:xlink="http://www.w3.org/1999/xlink" version="1.1" id="Capa_1" x="0px" y="0px" viewBox="0 0 512 512" style="enable-background:new 0 0 512 512;" xml:space="preserve" width="100%" height="100%">
<g>
	<g>
		<path d="M451,273.763V87.237C468.422,81.024,481,64.53,481,45c0-24.814-20.186-45-45-45H76C51.186,0,31,20.186,31,45    c0,19.53,12.578,36.024,30,42.237v186.526C43.578,279.976,31,296.47,31,316c0,24.814,20.186,45,45,45h131.321L94.853,486.966    c-5.537,6.152-5.039,15.645,1.113,21.182c6.185,5.553,15.663,5.034,21.182-1.113L241,368.419V497c0,8.291,6.709,15,15,15    s15-6.709,15-15V368.419l123.853,138.615c5.519,6.148,14.997,6.667,21.182,1.113c6.152-5.537,6.65-15.029,1.113-21.182    L304.679,361H436c24.814,0,45-20.186,45-45C481,296.47,468.422,279.976,451,273.763z M76,30h360c8.276,0,15,6.724,15,15    s-6.724,15-15,15H76c-8.276,0-15-6.724-15-15S67.724,30,76,30z M436,331H76c-8.276,0-15-6.724-15-15s6.724-15,15-15h360    c8.276,0,15,6.724,15,15S444.276,331,436,331z" fill="#fff"/>
	</g>
</g>
<g>
</g>
<g>
</g>
<g>
</g>
<g>
</g>
<g>
</g>
<g>
</g>
<g>
</g>
<g>
</g>
<g>
</g>
<g>
</g>
<g>
</g>
<g>
</g>
<g>
</g>
<g>
</g>
<g>
</g>
</svg>
