<?xml version="1.0" encoding="iso-8859-1"?>
<!-- Generator: Adobe Illustrator 19.0.0, SVG Export Plug-In . SVG Version: 6.00 Build 0)  -->
<svg xmlns="http://www.w3.org/2000/svg" xmlns:xlink="http://www.w3.org/1999/xlink" version="1.1" id="Capa_1" x="0px" y="0px" viewBox="0 0 512 512" style="enable-background:new 0 0 512 512;" xml:space="preserve" width="100%" height="100%">
<g>
	<g>
		<path d="M0,211v256c0,24.814,20.186,45,45,45h422c24.814,0,45-20.186,45-45V211H0z M136,452H76c-8.291,0-15-6.709-15-15    c0-8.291,6.709-15,15-15h60c8.291,0,15,6.709,15,15C151,445.291,144.291,452,136,452z M136,361H76c-8.291,0-15-6.709-15-15    c0-8.291,6.709-15,15-15h60c8.291,0,15,6.709,15,15C151,354.291,144.291,361,136,361z M136,271H76c-8.291,0-15-6.709-15-15    c0-8.291,6.709-15,15-15h60c8.291,0,15,6.709,15,15S144.291,271,136,271z M286,452h-60c-8.291,0-15-6.709-15-15    c0-8.291,6.709-15,15-15h60c8.291,0,15,6.709,15,15C301,445.291,294.291,452,286,452z M286,361h-60c-8.291,0-15-6.709-15-15    c0-8.291,6.709-15,15-15h60c8.291,0,15,6.709,15,15C301,354.291,294.291,361,286,361z M286,271h-60c-8.291,0-15-6.709-15-15    c0-8.291,6.709-15,15-15h60c8.291,0,15,6.709,15,15S294.291,271,286,271z M436,452h-60c-8.291,0-15-6.709-15-15    c0-8.291,6.709-15,15-15h60c8.291,0,15,6.709,15,15C451,445.291,444.291,452,436,452z M436,361h-60c-8.291,0-15-6.709-15-15    c0-8.291,6.709-15,15-15h60c8.291,0,15,6.709,15,15C451,354.291,444.291,361,436,361z M436,271h-60c-8.291,0-15-6.709-15-15    c0-8.291,6.709-15,15-15h60c8.291,0,15,6.709,15,15S444.291,271,436,271z" fill="#fff"/>
	</g>
</g>
<g>
	<g>
		<path d="M467,60h-16V45c0-24.814-20.186-45-45-45c-24.814,0-45,20.186-45,45v15h-60V45c0-24.814-20.186-45-45-45    c-24.814,0-45,20.186-45,45v15h-60V45c0-24.814-20.186-45-45-45C81.186,0,61,20.186,61,45v15H45C20.186,60,0,80.186,0,105v76h512    v-76C512,80.186,491.814,60,467,60z M121,105c0,8.276-6.724,15-15,15s-15-6.724-15-15V45c0-8.276,6.724-15,15-15s15,6.724,15,15    V105z M271,105c0,8.276-6.724,15-15,15s-15-6.724-15-15V45c0-8.276,6.724-15,15-15s15,6.724,15,15V105z M421,105    c0,8.276-6.724,15-15,15s-15-6.724-15-15V45c0-8.276,6.724-15,15-15s15,6.724,15,15V105z" fill="#fff"/>
	</g>
</g>
<g>
</g>
<g>
</g>
<g>
</g>
<g>
</g>
<g>
</g>
<g>
</g>
<g>
</g>
<g>
</g>
<g>
</g>
<g>
</g>
<g>
</g>
<g>
</g>
<g>
</g>
<g>
</g>
<g>
</g>
</svg>
