<?xml version="1.0" encoding="iso-8859-1"?>
<!-- Generator: Adobe Illustrator 19.0.0, SVG Export Plug-In . SVG Version: 6.00 Build 0)  -->
<svg xmlns="http://www.w3.org/2000/svg" xmlns:xlink="http://www.w3.org/1999/xlink" version="1.1" id="Capa_1" x="0px" y="0px" viewBox="0 0 512 512" style="enable-background:new 0 0 512 512;" xml:space="preserve" width="100%" height="100%">
<g>
	<g>
		<path d="M505.988,395l-119.996-89.997c-9.782-7.369-23.993-0.406-23.993,11.997v44.998h-75.997    c-24.813,0-44.998-20.185-44.998-44.998v-91.997c0-74.44-60.555-134.995-134.995-134.995H45.01    c-24.813,0-44.998,20.185-44.998,44.998s20.185,44.998,44.998,44.998h60.998c24.813,0,44.998,20.185,44.998,44.998v91.997    c0,74.44,60.555,134.995,134.995,134.995h75.997v44.998c0,12.498,14.303,19.318,23.993,11.997l119.996-89.997    C513.982,413.013,513.994,400.988,505.988,395z" fill="#898C94"/>
	</g>
</g>
<g>
	<g>
		<path d="M121.617,329.045c-4.883,1.82-10.099,2.954-15.608,2.954H45.01c-24.813,0-44.998,20.185-44.998,44.998    s20.185,44.998,44.998,44.998h60.998c15.984,0,31.739-2.893,46.554-8.35C135.031,389.51,123.908,360.518,121.617,329.045z" fill="#898C94"/>
	</g>
</g>
<g>
	<g>
		<path d="M505.988,93.01L385.992,3.013c-9.722-7.355-23.993-0.437-23.993,11.997v44.998h-75.997    c-31.184,0-61.045,11.23-84.821,30.453c24.726,17.542,44.488,41.624,56.562,69.814c7.749-6.319,17.502-10.27,28.259-10.27h75.997    v44.998c0,12.494,14.388,19.349,23.993,11.997l119.996-89.997C513.982,111.024,513.994,98.999,505.988,93.01z" fill="#898C94"/>
	</g>
</g>
<g>
</g>
<g>
</g>
<g>
</g>
<g>
</g>
<g>
</g>
<g>
</g>
<g>
</g>
<g>
</g>
<g>
</g>
<g>
</g>
<g>
</g>
<g>
</g>
<g>
</g>
<g>
</g>
<g>
</g>
</svg>
