<?xml version="1.0" encoding="iso-8859-1"?>
<!-- Generator: Adobe Illustrator 19.0.0, SVG Export Plug-In . SVG Version: 6.00 Build 0)  -->
<svg xmlns="http://www.w3.org/2000/svg" xmlns:xlink="http://www.w3.org/1999/xlink" version="1.1" id="Capa_1" x="0px" y="0px" viewBox="0 0 512 512" style="enable-background:new 0 0 512 512;" xml:space="preserve" width="100%" height="100%">
<g>
	<g>
		<path d="M256,271c-8.276,0-15,6.724-15,15s6.724,15,15,15s15-6.724,15-15S264.276,271,256,271z" fill="#898C94"/>
	</g>
</g>
<g>
	<g>
		<path d="M467,91H361V76c0-24.814-20.186-45-45-45H196c-24.814,0-45,20.186-45,45v15h-31V76c0-24.814-20.186-45-45-45    c-24.814,0-45,20.186-45,45v17.763C12.578,99.976,0,116.47,0,136v15h45c24.814,0,45,20.186,45,45v75h62.516    c7.357-50.75,50.729-90,103.484-90s96.127,39.25,103.484,90H422v-75c0-24.814,20.186-45,45-45h45v-15    C512,111.186,491.814,91,467,91z M90,91H60V76c0-8.276,6.724-15,15-15s15,6.724,15,15V91z M135,181c-8.284,0-15-6.716-15-15    c0-8.286,6.716-15,15-15s15,6.714,15,15C150,174.284,143.284,181,135,181z M331,91H181V76c0-8.276,6.724-15,15-15h120    c8.276,0,15,6.724,15,15V91z" fill="#898C94"/>
	</g>
</g>
<g>
	<g>
		<path d="M467,181c-8.276,0-15,6.724-15,15v180c0,8.276,6.724,15,15,15h45V181H467z" fill="#898C94"/>
	</g>
</g>
<g>
	<g>
		<path d="M45,181H0v210h45c8.276,0,15-6.724,15-15V196C60,187.724,53.276,181,45,181z" fill="#898C94"/>
	</g>
</g>
<g>
	<g>
		<path d="M256,211c-41.353,0-75,33.647-75,75c0,41.353,33.647,75,75,75c41.353,0,75-33.647,75-75C331,244.647,297.353,211,256,211z     M256,331c-24.814,0-45-20.186-45-45c0-24.814,20.186-45,45-45c24.814,0,45,20.186,45,45C301,310.814,280.814,331,256,331z" fill="#898C94"/>
	</g>
</g>
<g>
	<g>
		<path d="M467,421c-24.814,0-45-20.186-45-45v-75h-62.516c-7.357,50.75-50.729,90-103.484,90s-96.127-39.25-103.484-90H90v75    c0,24.814-20.186,45-45,45H0v15c0,24.814,20.186,45,45,45h422c24.814,0,45-20.186,45-45v-15H467z" fill="#898C94"/>
	</g>
</g>
<g>
</g>
<g>
</g>
<g>
</g>
<g>
</g>
<g>
</g>
<g>
</g>
<g>
</g>
<g>
</g>
<g>
</g>
<g>
</g>
<g>
</g>
<g>
</g>
<g>
</g>
<g>
</g>
<g>
</g>
</svg>
