<?xml version="1.0" encoding="iso-8859-1"?>
<!-- Generator: Adobe Illustrator 19.0.0, SVG Export Plug-In . SVG Version: 6.00 Build 0)  -->
<svg xmlns="http://www.w3.org/2000/svg" xmlns:xlink="http://www.w3.org/1999/xlink" version="1.1" id="Capa_1" x="0px" y="0px" viewBox="0 -150 511 760" style="enable-background:new 0 0 511.999 511.999;" xml:space="preserve" width="1.6rem" height="1.6rem">
<g>
	<g>
		<path d="M454.98,57.019c-76.025-76.025-199.746-76.025-275.771,0c-58.135,58.135-71.026,142.685-42.464,212.177l-21.183,21.172    c-12.889,12.889-17.388,32.854-8.681,51.101l-93.743,93.729c-17.52,17.549-17.52,46.099,0.015,63.662    c17.53,17.501,46.062,17.541,63.647-0.015l93.729-93.727c18.279,8.719,38.237,4.185,51.103-8.681l21.172-21.183    c69.013,28.365,153.689,16.024,212.177-42.464C531.005,256.766,531.005,133.06,454.98,57.019z M126.172,407.049l-21.224-21.224    l21.216-21.216l21.222,21.229L126.172,407.049z M433.769,311.58c-64.398,64.398-168.965,64.385-233.35,0    c-64.397-64.397-64.385-168.965,0-233.35c64.31-64.31,168.998-64.323,233.35,0C498.09,142.566,498.09,247.259,433.769,311.58z" fill="#b9bfc4"/>
	</g>
</g>
<g>
	<g>
		<path d="M412.543,99.456c-52.661-52.661-138.281-52.632-190.913,0s-52.632,138.281,0,190.913    c52.626,52.626,138.265,52.648,190.913,0C465.175,237.737,465.175,152.088,412.543,99.456z" fill="#b9bfc4"/>
	</g>
</g>
<g>
</g>
<g>
</g>
<g>
</g>
<g>
</g>
<g>
</g>
<g>
</g>
<g>
</g>
<g>
</g>
<g>
</g>
<g>
</g>
<g>
</g>
<g>
</g>
<g>
</g>
<g>
</g>
<g>
</g>
</svg>
