<?xml version="1.0" encoding="iso-8859-1"?>
<!-- Generator: Adobe Illustrator 19.0.0, SVG Export Plug-In . SVG Version: 6.00 Build 0)  -->
<svg xmlns="http://www.w3.org/2000/svg" xmlns:xlink="http://www.w3.org/1999/xlink" version="1.1" id="Layer_1" x="0px" y="0px" viewBox="0 0 461.904 461.904" style="enable-background:new 0 0 461.904 461.904;" xml:space="preserve" width="100%" height="100%">
<g>
	<g>
		<path d="M454.391,218.01L240.221,3.839c-5.119-5.119-13.418-5.119-18.537,0L7.513,218.01c-3.749,3.749-4.87,9.387-2.841,14.285    s6.808,8.092,12.11,8.092h25.429v189.48c0,17.694,14.343,32.037,32.037,32.037h101.325V355.211    c0-7.239,5.868-13.108,13.108-13.108h84.543c7.239,0,13.108,5.869,13.108,13.108v106.692h101.325    c17.693,0,32.037-14.343,32.037-32.037v-189.48h25.429c5.302,0,10.081-3.194,12.11-8.092S458.14,221.758,454.391,218.01z" fill="#fff"/>
	</g>
</g>
<g>
</g>
<g>
</g>
<g>
</g>
<g>
</g>
<g>
</g>
<g>
</g>
<g>
</g>
<g>
</g>
<g>
</g>
<g>
</g>
<g>
</g>
<g>
</g>
<g>
</g>
<g>
</g>
<g>
</g>
</svg>
