<?xml version="1.0" encoding="iso-8859-1"?>
<!-- Generator: Adobe Illustrator 16.0.0, SVG Export Plug-In . SVG Version: 6.00 Build 0)  -->
<!DOCTYPE svg PUBLIC "-//W3C//DTD SVG 1.1//EN" "http://www.w3.org/Graphics/SVG/1.1/DTD/svg11.dtd">
<svg xmlns="http://www.w3.org/2000/svg" xmlns:xlink="http://www.w3.org/1999/xlink" version="1.1" id="Capa_1" x="0px" y="0px" width="100%" height="100%" viewBox="0 0 393.601 393.601" style="enable-background:new 0 0 393.601 393.601;" xml:space="preserve">
<g>
	<g>
		<path d="M323.53,258.346c-0.662-0.648-1.457-1.127-2.32-1.412v-17.34c0-3.314-2.688-6-6-6h-66.156c-3.314,0-6,2.686-6,6v17.34    c-0.865,0.284-1.662,0.764-2.324,1.413c-26.037,25.496-42.354,71.897-43.654,124.125c-0.039,1.617,0.574,3.181,1.703,4.338    c1.129,1.158,2.679,1.812,4.295,1.812h158.119c1.617,0,3.166-0.653,4.296-1.812c1.129-1.157,1.741-2.722,1.702-4.338    C365.892,330.24,349.571,283.839,323.53,258.346z" fill="#898C94"/>
		<path d="M242.726,2.401C241.13,0.852,239.026,0,236.804,0c-0.816,0-1.629,0.118-2.412,0.35    c-27.947,8.274-55.127,21.821-78.604,39.176c-19.158,14.163-36.469,31.014-51.453,50.087c-3.49,4.442-6.854,9.011-9.967,13.53    c-1.795,2.477-2.117,5.744-0.846,8.521c0.158,0.351,0.318,0.706,0.471,1.062c1.092,2.532,2.053,5.267,2.854,8.125    c2.75,9.853,3.518,20.346,2.297,30.397c-1.596-7.097-3.764-13.649-6.479-19.572c-1.342-2.93-4.293-4.875-7.502-4.955l-0.225-0.003    c-3.182,0-6.07,1.754-7.541,4.578c-6.025,11.585-10.545,22.53-13.816,33.459c-4,13.358-6.613,28.123-7.766,43.884    c-1.324,18.107-0.521,36.425,0.254,54.152c0.104,2.371,0.209,4.758,0.309,7.16c0.164,3.904,2.951,7.182,6.777,7.97    c0.564,0.116,1.143,0.175,1.717,0.175c3.246,0,6.254-1.893,7.672-4.844l22.014-47.166l0.695-1.486    c1.83-3.913,3.658-7.824,5.498-11.773c12.453-26.75,26.568-57.067,43.23-85.601c11.219-19.207,24.93-40.637,42.936-57.698    c-10.873,21.477-20.182,43.848-29.199,65.521c-0.195,0.428-19.688,42.968-27.902,59.303l-0.078,0.156    c-5.092,10.129-10.359,20.604-15.248,30.891c-17.596,37.02-97.744,151.238-87.115,167.708    c5.688,8.813,77.652-103.213,77.652-103.213c5.1-2.214,9.25-4.085,13.023-5.875c25.891-12.269,45.537-26.187,60.063-42.545    c8.539-9.621,16.129-20.966,24.609-36.786c5.477-10.218,10.295-20.861,14.322-31.633c0.885-2.369,0.676-4.988-0.578-7.188    c-1.254-2.198-3.4-3.713-5.894-4.157c-7.172-1.279-14.143-3.565-20.578-6.723c6.904,0.775,13.588,0.896,19.861,0.359    c2.908-0.249,5.764-0.643,8.492-1.17c3.195-0.618,5.789-3.051,6.611-6.2c0.157-0.605,0.312-1.213,0.465-1.811    c0.6-2.36,1.168-4.837,1.729-7.275l0.25-1.088c3.832-16.634,6.176-39.83,8.443-62.262c2.428-24.015,4.938-48.847,9.176-64.871    C245.806,7.707,244.925,4.538,242.726,2.401z" fill="#898C94"/>
	</g>
</g>
<g>
</g>
<g>
</g>
<g>
</g>
<g>
</g>
<g>
</g>
<g>
</g>
<g>
</g>
<g>
</g>
<g>
</g>
<g>
</g>
<g>
</g>
<g>
</g>
<g>
</g>
<g>
</g>
<g>
</g>
</svg>
