<svg xmlns="http://www.w3.org/2000/svg" viewBox="0 0 459 459"><path d="M229.5 0C102.53 0 0 102.845 0 229.5 0 356.301 102.719 459 229.5 459 356.851 459 459 355.815 459 229.5 459 102.547 356.079 0 229.5 0zm118.101 364.67C314.887 393.338 273.4 409 229.5 409c-43.892 0-85.372-15.657-118.083-44.314-4.425-3.876-6.425-9.834-5.245-15.597 11.3-55.195 46.457-98.725 91.209-113.047C174.028 222.218 158 193.817 158 161c0-46.392 32.012-84 71.5-84s71.5 37.608 71.5 84c0 32.812-16.023 61.209-39.369 75.035 44.751 14.319 79.909 57.848 91.213 113.038 1.179 5.755-.825 11.725-5.243 15.597z" fill="#898C94"/></svg>
