<?xml version="1.0" encoding="iso-8859-1"?>
<!-- Generator: Adobe Illustrator 19.0.0, SVG Export Plug-In . SVG Version: 6.00 Build 0)  -->
<svg xmlns="http://www.w3.org/2000/svg" xmlns:xlink="http://www.w3.org/1999/xlink" version="1.1" id="Capa_1" x="0px" y="0px" viewBox="0 0 290 290" style="enable-background:new 0 0 290 290;" xml:space="preserve" width="100%" height="100%">
<g>
	<path d="M265,60h-30h-15V15c0-8.284-6.716-15-15-15H85c-8.284,0-15,6.716-15,15v45H55H25c-8.284,0-15,6.716-15,15s6.716,15,15,15   h15v185c0,8.284,6.716,15,15,15h60h60h60c8.284,0,15-6.716,15-15V90h15c8.284,0,15-6.716,15-15S273.284,60,265,60z M100,30h90v30   h-15h-60h-15V30z M70,90h15h15v170H70V90z M130,90h30v170h-30V90z M220,260h-30V90h15h15V260z"/>
</g>
<g>
</g>
<g>
</g>
<g>
</g>
<g>
</g>
<g>
</g>
<g>
</g>
<g>
</g>
<g>
</g>
<g>
</g>
<g>
</g>
<g>
</g>
<g>
</g>
<g>
</g>
<g>
</g>
<g>
</g>
</svg>
