<?xml version="1.0" encoding="iso-8859-1"?>
<!-- Generator: Adobe Illustrator 19.0.0, SVG Export Plug-In . SVG Version: 6.00 Build 0)  -->
<svg xmlns="http://www.w3.org/2000/svg" xmlns:xlink="http://www.w3.org/1999/xlink" version="1.1" id="Layer_1" x="0px" y="0px" viewBox="0 0 460.446 460.446" style="enable-background:new 0 0 460.446 460.446;" xml:space="preserve" width="100%" height="100%">
<g>
	<g>
		<g>
			<path d="M433.423,109.558h-187.41l-28.21-58.087c-6.652-13.698-20.543-22.395-35.772-22.395H48.949     c-14.924,0-27.023,12.099-27.023,27.023v3.837c4.069-0.276-3.787-0.193,107.241-0.193c31,0,58.811,19.122,69.839,48.216     l12.23,32.265h200.261c18.714,0,35.829,6.934,48.949,18.348v-21.991C460.445,121.657,448.347,109.558,433.423,109.558z" fill="#898C94"/>
			<path d="M411.497,187.889H178.328l-23.893-63.036c-3.98-10.5-14.039-17.445-25.268-17.445H27.023     C12.099,107.407,0,119.506,0,134.43v269.917c0,14.924,12.099,27.023,27.023,27.023h384.474c14.924,0,27.023-12.099,27.023-27.023     V214.912C438.52,199.987,426.421,187.889,411.497,187.889z" fill="#898C94"/>
		</g>
	</g>
</g>
<g>
</g>
<g>
</g>
<g>
</g>
<g>
</g>
<g>
</g>
<g>
</g>
<g>
</g>
<g>
</g>
<g>
</g>
<g>
</g>
<g>
</g>
<g>
</g>
<g>
</g>
<g>
</g>
<g>
</g>
</svg>
