<svg xmlns="http://www.w3.org/2000/svg" xmlns:xlink="http://www.w3.org/1999/xlink" version="1.1" id="Capa_1" x="0px" y="0px" width="100%" height="100%" viewBox="0 0 292.359 292.359" style="enable-background:new 0 0 292.359 292.359;" xml:space="preserve" class=""><g><g>
  <path d="M222.979,5.424C219.364,1.807,215.08,0,210.132,0c-4.949,0-9.233,1.807-12.848,5.424L69.378,133.331   c-3.615,3.617-5.424,7.898-5.424,12.847c0,4.949,1.809,9.233,5.424,12.847l127.906,127.907c3.614,3.617,7.898,5.428,12.848,5.428   c4.948,0,9.232-1.811,12.847-5.428c3.617-3.614,5.427-7.898,5.427-12.847V18.271C228.405,13.322,226.596,9.042,222.979,5.424z" data-original="#000000" class="active-path" fill="#129AFA"/>
</g></g> </svg>
<svg xmlns="http://www.w3.org/2000/svg" viewBox="0 0 150 150">
  <g fill="#898C94">
    <path d="M15 30h120c8.284 0 15-6.716 15-15s-6.716-15-15-15H15C6.716 0 0 6.716 0 15s6.716 15 15 15zM135 60H15C6.716 60 0 66.716 0 75s6.716 15 15 15h120c8.284 0 15-6.716 15-15s-6.716-15-15-15zM135 120H15c-8.284 0-15 6.716-15 15s6.716 15 15 15h120c8.284 0 15-6.716 15-15s-6.716-15-15-15z"/>
  </g>
</svg>